<svg xmlns="http://www.w3.org/2000/svg" width="1040" height="660" viewBox="0 0 1040 660">
<rect x="0" y="0" width="100%" height="100%" fill="white"/>
<text x="520.0" y="34" text-anchor="middle" font-size="18" font-family="Times New Roman, Times, serif">AP vs. GFLOPs</text>
<line x1="90" y1="580" x2="1010" y2="580" stroke="#222" stroke-width="1.2"/>
<line x1="90" y1="580" x2="90" y2="60" stroke="#222" stroke-width="1.2"/>
<line x1="355.71" y1="580" x2="355.71" y2="586" stroke="#222" stroke-width="1"/>
<line x1="355.71" y1="580" x2="355.71" y2="60" stroke="#999" stroke-width="0.8" opacity="0.35"/>
<text x="355.71" y="602" text-anchor="middle" font-size="12" font-family="Times New Roman, Times, serif">10</text>
<line x1="641.43" y1="580" x2="641.43" y2="586" stroke="#222" stroke-width="1"/>
<line x1="641.43" y1="580" x2="641.43" y2="60" stroke="#999" stroke-width="0.8" opacity="0.35"/>
<text x="641.43" y="602" text-anchor="middle" font-size="12" font-family="Times New Roman, Times, serif">20</text>
<line x1="927.14" y1="580" x2="927.14" y2="586" stroke="#222" stroke-width="1"/>
<line x1="927.14" y1="580" x2="927.14" y2="60" stroke="#999" stroke-width="0.8" opacity="0.35"/>
<text x="927.14" y="602" text-anchor="middle" font-size="12" font-family="Times New Roman, Times, serif">30</text>
<line x1="84" y1="517.25" x2="90" y2="517.25" stroke="#222" stroke-width="1"/>
<line x1="90" y1="517.25" x2="1010" y2="517.25" stroke="#999" stroke-width="0.8" opacity="0.35"/>
<text x="80" y="521.25" text-anchor="end" font-size="12" font-family="Times New Roman, Times, serif">65</text>
<line x1="84" y1="361.94" x2="90" y2="361.94" stroke="#222" stroke-width="1"/>
<line x1="90" y1="361.94" x2="1010" y2="361.94" stroke="#999" stroke-width="0.8" opacity="0.35"/>
<text x="80" y="365.94" text-anchor="end" font-size="12" font-family="Times New Roman, Times, serif">70</text>
<line x1="84" y1="206.62" x2="90" y2="206.62" stroke="#222" stroke-width="1"/>
<line x1="90" y1="206.62" x2="1010" y2="206.62" stroke="#999" stroke-width="0.8" opacity="0.35"/>
<text x="80" y="210.62" text-anchor="end" font-size="12" font-family="Times New Roman, Times, serif">75</text>
<text x="550.0" y="638" text-anchor="middle" font-size="14" font-family="Times New Roman, Times, serif">GFLOPs (lower is better)</text>
<text x="22" y="320.0" text-anchor="middle" font-size="14" font-family="Times New Roman, Times, serif" transform="rotate(-90 22 320.0)">AP (%) (higher is better)</text>
<circle cx="1010.00" cy="166.24" r="7.50" fill="none" stroke="#ff2d95" stroke-width="2.6" opacity="0.10"/>
<circle cx="1010.00" cy="166.24" r="7.50" fill="none" stroke="#ff2d95" stroke-width="1.2" opacity="0.65"/>
<polygon points="1010.00,160.64 1004.40,171.84 1015.60,171.84" fill="#4c78a8" opacity="0.780"/>
<text x="1020.00" y="178.24" text-anchor="start" font-size="10.5" font-family="Times New Roman, Times, serif" font-weight="400" fill="#111">HRNet-W48 (Original)</text>
<circle cx="1010.00" cy="110.32" r="7.50" fill="none" stroke="#ff2d95" stroke-width="2.6" opacity="0.10"/>
<circle cx="1010.00" cy="110.32" r="7.50" fill="none" stroke="#ff2d95" stroke-width="1.2" opacity="0.65"/>
<polygon points="1010.00,104.72 1004.40,115.92 1015.60,115.92" fill="#4c78a8" opacity="0.780"/>
<text x="1017.00" y="103.32" text-anchor="start" font-size="10.5" font-family="Times New Roman, Times, serif" font-weight="400" fill="#111">HRNet-W48 (Fine-Tuning)</text>
<circle cx="464.29" cy="110.32" r="9.90" fill="none" stroke="#ff2d95" stroke-width="2.6" opacity="0.10"/>
<circle cx="464.29" cy="110.32" r="9.90" fill="none" stroke="#ff2d95" stroke-width="1.2" opacity="0.65"/>
<polygon points="464.29,102.32 466.40,107.41 471.89,107.85 467.71,111.44 468.99,116.79 464.29,113.92 459.58,116.79 460.86,111.44 456.68,107.85 462.17,107.41" fill="#e45756" opacity="0.780"/>
<text x="471.29" y="103.32" text-anchor="start" font-size="10.5" font-family="Times New Roman, Times, serif" font-weight="700" fill="#111">Ours (lossless)</text>
<circle cx="367.14" cy="122.75" r="9.90" fill="none" stroke="#ff2d95" stroke-width="2.6" opacity="0.10"/>
<circle cx="367.14" cy="122.75" r="9.90" fill="none" stroke="#ff2d95" stroke-width="1.2" opacity="0.65"/>
<polygon points="367.14,114.75 369.26,119.84 374.75,120.28 370.57,123.86 371.85,129.22 367.14,126.35 362.44,129.22 363.72,123.86 359.53,120.28 365.03,119.84" fill="#e45756" opacity="0.780"/>
<text x="367.14" y="134.75" text-anchor="middle" font-size="10.5" font-family="Times New Roman, Times, serif" font-weight="700" fill="#111">Ours (slight loss)</text>
<circle cx="727.14" cy="178.66" r="7.10" fill="none" stroke="#ff2d95" stroke-width="2.6" opacity="0.10"/>
<circle cx="727.14" cy="178.66" r="7.10" fill="none" stroke="#ff2d95" stroke-width="1.2" opacity="0.65"/>
<circle cx="727.14" cy="178.66" r="5.20" fill="#54a24b" opacity="0.780"/>
<text x="734.14" y="171.66" text-anchor="start" font-size="10.5" font-family="Times New Roman, Times, serif" font-weight="400" fill="#111">EEffPose-P2</text>
<circle cx="324.29" cy="265.64" r="6.90" fill="none" stroke="#ff2d95" stroke-width="2.6" opacity="0.10"/>
<circle cx="324.29" cy="265.64" r="6.90" fill="none" stroke="#ff2d95" stroke-width="1.2" opacity="0.65"/>
<circle cx="324.29" cy="265.64" r="5.00" fill="#9d9d9d" opacity="0.780"/>
<text x="331.29" y="258.64" text-anchor="start" font-size="10.5" font-family="Times New Roman, Times, serif" font-weight="400" fill="#111">ResNet-50</text>
<circle cx="527.14" cy="181.77" r="7.50" fill="none" stroke="#ff2d95" stroke-width="2.6" opacity="0.10"/>
<circle cx="527.14" cy="181.77" r="7.50" fill="none" stroke="#ff2d95" stroke-width="1.2" opacity="0.65"/>
<polygon points="527.14,176.17 521.54,187.37 532.74,187.37" fill="#4c78a8" opacity="0.780"/>
<text x="534.14" y="174.77" text-anchor="start" font-size="10.5" font-family="Times New Roman, Times, serif" font-weight="400" fill="#111">HRNet-W32</text>
<circle cx="90.00" cy="371.25" r="7.50" fill="none" stroke="#ff2d95" stroke-width="2.6" opacity="0.10"/>
<circle cx="90.00" cy="371.25" r="7.50" fill="none" stroke="#ff2d95" stroke-width="1.2" opacity="0.65"/>
<polygon points="90.00,365.65 84.40,376.85 95.60,376.85" fill="#4c78a8" opacity="0.780"/>
<text x="97.00" y="364.25" text-anchor="start" font-size="10.5" font-family="Times New Roman, Times, serif" font-weight="400" fill="#111">Lite-HRNet-30</text>
<circle cx="110.00" cy="529.68" r="7.10" fill="none" stroke="#00e5ff" stroke-width="2.6" opacity="0.10"/>
<circle cx="110.00" cy="529.68" r="7.10" fill="none" stroke="#00e5ff" stroke-width="1.2" opacity="0.65"/>
<circle cx="110.00" cy="529.68" r="5.20" fill="#54a24b" opacity="0.780"/>
<text x="117.00" y="522.68" text-anchor="start" font-size="10.5" font-family="Times New Roman, Times, serif" font-weight="400" fill="#111">MobileNetV2</text>
<circle cx="198.57" cy="281.17" r="7.50" fill="none" stroke="#00e5ff" stroke-width="2.6" opacity="0.10"/>
<circle cx="198.57" cy="281.17" r="7.50" fill="none" stroke="#00e5ff" stroke-width="1.2" opacity="0.65"/>
<polygon points="198.57,275.57 193.25,279.77 195.21,286.49 201.93,286.49 203.89,279.77" fill="#f58518" opacity="0.780"/>
<text x="208.57" y="293.17" text-anchor="start" font-size="10.5" font-family="Times New Roman, Times, serif" font-weight="400" fill="#111">HEViTPose-B</text>
<circle cx="131.43" cy="234.58" r="7.50" fill="none" stroke="#00e5ff" stroke-width="2.6" opacity="0.10"/>
<circle cx="131.43" cy="234.58" r="7.50" fill="none" stroke="#00e5ff" stroke-width="1.2" opacity="0.65"/>
<rect x="125.83" y="228.98" width="11.20" height="11.20" fill="#ff9da6" opacity="0.780"/>
<text x="141.43" y="246.58" text-anchor="start" font-size="10.5" font-family="Times New Roman, Times, serif" font-weight="400" fill="#111">DRP-Net-M</text>
<circle cx="172.86" cy="209.73" r="7.30" fill="none" stroke="#00e5ff" stroke-width="2.6" opacity="0.10"/>
<circle cx="172.86" cy="209.73" r="7.30" fill="none" stroke="#00e5ff" stroke-width="1.2" opacity="0.65"/>
<polygon points="167.46,209.73 170.16,204.33 175.56,204.33 178.26,209.73 175.56,215.13 170.16,215.13" fill="#72b7b2" opacity="0.780"/>
<text x="179.86" y="202.73" text-anchor="start" font-size="10.5" font-family="Times New Roman, Times, serif" font-weight="400" fill="#111">GTPT-B</text>
<rect x="100" y="56" width="260" height="18" fill="white" opacity="0.82"/>
<polygon points="108.00,58.20 102.20,69.80 113.80,69.80" fill="#4c78a8" opacity="0.900"/>
<text x="120" y="68" font-size="12" font-family="Times New Roman, Times, serif">HRNet</text>
<rect x="100" y="74" width="260" height="18" fill="white" opacity="0.82"/>
<polygon points="108.00,76.20 109.53,79.89 113.52,80.21 110.48,82.81 111.41,86.69 108.00,84.61 104.59,86.69 105.52,82.81 102.48,80.21 106.47,79.89" fill="#e45756" opacity="0.900"/>
<text x="120" y="86" font-size="12" font-family="Times New Roman, Times, serif">Ours</text>
<rect x="100" y="92" width="260" height="18" fill="white" opacity="0.82"/>
<circle cx="108.00" cy="100.00" r="5.80" fill="#54a24b" opacity="0.900"/>
<text x="120" y="104" font-size="12" font-family="Times New Roman, Times, serif">Lightweight</text>
<rect x="100" y="110" width="260" height="18" fill="white" opacity="0.82"/>
<circle cx="108.00" cy="118.00" r="5.80" fill="#9d9d9d" opacity="0.900"/>
<text x="120" y="122" font-size="12" font-family="Times New Roman, Times, serif">General Backbone</text>
<rect x="100" y="128" width="260" height="18" fill="white" opacity="0.82"/>
<polygon points="108.00,130.20 102.49,134.55 104.52,141.51 111.48,141.51 113.51,134.55" fill="#f58518" opacity="0.900"/>
<text x="120" y="140" font-size="12" font-family="Times New Roman, Times, serif">Efficient ViT</text>
<rect x="100" y="146" width="260" height="18" fill="white" opacity="0.82"/>
<polygon points="102.20,154.00 105.10,148.20 110.90,148.20 113.80,154.00 110.90,159.80 105.10,159.80" fill="#72b7b2" opacity="0.900"/>
<text x="120" y="158" font-size="12" font-family="Times New Roman, Times, serif">Token Pruning</text>
<rect x="100" y="164" width="260" height="18" fill="white" opacity="0.82"/>
<rect x="102.20" y="166.20" width="11.60" height="11.60" fill="#ff9da6" opacity="0.900"/>
<text x="120" y="176" font-size="12" font-family="Times New Roman, Times, serif">Dynamic Resolution</text>
<rect x="100" y="186" width="260" height="18" fill="white" opacity="0.82"/>
<circle cx="108" cy="194" r="5.4" fill="none" stroke="#00e5ff" stroke-width="1.6" opacity="0.78"/>
<text x="120" y="198" font-size="12" font-family="Times New Roman, Times, serif">Input 256×192</text>
<rect x="100" y="204" width="260" height="18" fill="white" opacity="0.82"/>
<circle cx="108" cy="212" r="5.4" fill="none" stroke="#ff2d95" stroke-width="1.6" opacity="0.78"/>
<text x="120" y="216" font-size="12" font-family="Times New Roman, Times, serif">Input 384×288</text>
</svg>