<svg xmlns="http://www.w3.org/2000/svg" width="1040" height="660" viewBox="0 0 1040 660">
<rect x="0" y="0" width="100%" height="100%" fill="white"/>
<text x="520.0" y="34" text-anchor="middle" font-size="18" font-family="Times New Roman, Times, serif">AP vs. GFLOPs</text>
<line x1="90" y1="580" x2="1010" y2="580" stroke="#222" stroke-width="1.2"/>
<line x1="90" y1="580" x2="90" y2="60" stroke="#222" stroke-width="1.2"/>
<line x1="355.71" y1="580" x2="355.71" y2="586" stroke="#222" stroke-width="1"/>
<line x1="355.71" y1="580" x2="355.71" y2="60" stroke="#999" stroke-width="0.8" opacity="0.35"/>
<text x="355.71" y="602" text-anchor="middle" font-size="12" font-family="Times New Roman, Times, serif">10</text>
<line x1="641.43" y1="580" x2="641.43" y2="586" stroke="#222" stroke-width="1"/>
<line x1="641.43" y1="580" x2="641.43" y2="60" stroke="#999" stroke-width="0.8" opacity="0.35"/>
<text x="641.43" y="602" text-anchor="middle" font-size="12" font-family="Times New Roman, Times, serif">20</text>
<line x1="927.14" y1="580" x2="927.14" y2="586" stroke="#222" stroke-width="1"/>
<line x1="927.14" y1="580" x2="927.14" y2="60" stroke="#999" stroke-width="0.8" opacity="0.35"/>
<text x="927.14" y="602" text-anchor="middle" font-size="12" font-family="Times New Roman, Times, serif">30</text>
<line x1="84" y1="517.25" x2="90" y2="517.25" stroke="#222" stroke-width="1"/>
<line x1="90" y1="517.25" x2="1010" y2="517.25" stroke="#999" stroke-width="0.8" opacity="0.35"/>
<text x="80" y="521.25" text-anchor="end" font-size="12" font-family="Times New Roman, Times, serif">65</text>
<line x1="84" y1="361.94" x2="90" y2="361.94" stroke="#222" stroke-width="1"/>
<line x1="90" y1="361.94" x2="1010" y2="361.94" stroke="#999" stroke-width="0.8" opacity="0.35"/>
<text x="80" y="365.94" text-anchor="end" font-size="12" font-family="Times New Roman, Times, serif">70</text>
<line x1="84" y1="206.62" x2="90" y2="206.62" stroke="#222" stroke-width="1"/>
<line x1="90" y1="206.62" x2="1010" y2="206.62" stroke="#999" stroke-width="0.8" opacity="0.35"/>
<text x="80" y="210.62" text-anchor="end" font-size="12" font-family="Times New Roman, Times, serif">75</text>
<text x="550.0" y="638" text-anchor="middle" font-size="14" font-family="Times New Roman, Times, serif">GFLOPs (lower is better)</text>
<text x="22" y="320.0" text-anchor="middle" font-size="14" font-family="Times New Roman, Times, serif" transform="rotate(-90 22 320.0)">AP (%) (higher is better)</text>
<circle cx="1010.00" cy="166.24" r="7.50" fill="none" stroke="#ff2d95" stroke-width="2.6" opacity="0.10"/>
<circle cx="1010.00" cy="166.24" r="7.50" fill="none" stroke="#ff2d95" stroke-width="1.2" opacity="0.65"/>
<polygon points="1010.00,160.64 1004.40,171.84 1015.60,171.84" fill="#4c78a8" opacity="0.780"/>
<text x="1020.00" y="178.24" text-anchor="start" font-size="10.5" font-family="Times New Roman, Times, serif" fill="#111">HRNet-W48 (Original)</text>
<circle cx="1010.00" cy="110.32" r="7.50" fill="none" stroke="#ff2d95" stroke-width="2.6" opacity="0.10"/>
<circle cx="1010.00" cy="110.32" r="7.50" fill="none" stroke="#ff2d95" stroke-width="1.2" opacity="0.65"/>
<polygon points="1010.00,104.72 1004.40,115.92 1015.60,115.92" fill="#4c78a8" opacity="0.780"/>
<text x="1017.00" y="103.32" text-anchor="start" font-size="10.5" font-family="Times New Roman, Times, serif" fill="#111">HRNet-W48 (Fine-Tuning)</text>
<circle cx="464.29" cy="110.32" r="7.90" fill="none" stroke="#ff2d95" stroke-width="2.6" opacity="0.10"/>
<circle cx="464.29" cy="110.32" r="7.90" fill="none" stroke="#ff2d95" stroke-width="1.2" opacity="0.65"/>
<rect x="458.29" y="104.32" width="12.00" height="12.00" fill="#e45756" opacity="0.780"/>
<text x="471.29" y="103.32" text-anchor="start" font-size="10.5" font-family="Times New Roman, Times, serif" fill="#111">Ours (lossless)</text>
<circle cx="367.14" cy="122.75" r="7.90" fill="none" stroke="#ff2d95" stroke-width="2.6" opacity="0.10"/>
<circle cx="367.14" cy="122.75" r="7.90" fill="none" stroke="#ff2d95" stroke-width="1.2" opacity="0.65"/>
<rect x="361.14" y="116.75" width="12.00" height="12.00" fill="#e45756" opacity="0.780"/>
<text x="367.14" y="134.75" text-anchor="middle" font-size="10.5" font-family="Times New Roman, Times, serif" fill="#111">Ours (slight loss)</text>
<circle cx="727.14" cy="178.66" r="7.10" fill="none" stroke="#ff2d95" stroke-width="2.6" opacity="0.10"/>
<circle cx="727.14" cy="178.66" r="7.10" fill="none" stroke="#ff2d95" stroke-width="1.2" opacity="0.65"/>
<circle cx="727.14" cy="178.66" r="5.20" fill="#54a24b" opacity="0.780"/>
<text x="734.14" y="171.66" text-anchor="start" font-size="10.5" font-family="Times New Roman, Times, serif" fill="#111">EEffPose-P2</text>
<circle cx="324.29" cy="265.64" r="6.90" fill="none" stroke="#ff2d95" stroke-width="2.6" opacity="0.10"/>
<circle cx="324.29" cy="265.64" r="6.90" fill="none" stroke="#ff2d95" stroke-width="1.2" opacity="0.65"/>
<circle cx="324.29" cy="265.64" r="5.00" fill="#9d9d9d" opacity="0.780"/>
<text x="331.29" y="258.64" text-anchor="start" font-size="10.5" font-family="Times New Roman, Times, serif" fill="#111">ResNet-50</text>
<circle cx="527.14" cy="181.77" r="7.50" fill="none" stroke="#ff2d95" stroke-width="2.6" opacity="0.10"/>
<circle cx="527.14" cy="181.77" r="7.50" fill="none" stroke="#ff2d95" stroke-width="1.2" opacity="0.65"/>
<polygon points="527.14,176.17 521.54,187.37 532.74,187.37" fill="#4c78a8" opacity="0.780"/>
<text x="534.14" y="174.77" text-anchor="start" font-size="10.5" font-family="Times New Roman, Times, serif" fill="#111">HRNet-W32</text>
<circle cx="90.00" cy="371.25" r="7.50" fill="none" stroke="#ff2d95" stroke-width="2.6" opacity="0.10"/>
<circle cx="90.00" cy="371.25" r="7.50" fill="none" stroke="#ff2d95" stroke-width="1.2" opacity="0.65"/>
<polygon points="90.00,365.65 84.40,376.85 95.60,376.85" fill="#4c78a8" opacity="0.780"/>
<text x="97.00" y="364.25" text-anchor="start" font-size="10.5" font-family="Times New Roman, Times, serif" fill="#111">Lite-HRNet-30</text>
<circle cx="110.00" cy="529.68" r="7.10" fill="none" stroke="#00e5ff" stroke-width="2.6" opacity="0.10"/>
<circle cx="110.00" cy="529.68" r="7.10" fill="none" stroke="#00e5ff" stroke-width="1.2" opacity="0.65"/>
<circle cx="110.00" cy="529.68" r="5.20" fill="#54a24b" opacity="0.780"/>
<text x="117.00" y="522.68" text-anchor="start" font-size="10.5" font-family="Times New Roman, Times, serif" fill="#111">MobileNetV2</text>
<circle cx="541.43" cy="138.28" r="7.50" fill="none" stroke="#ff2d95" stroke-width="2.6" opacity="0.10"/>
<circle cx="541.43" cy="138.28" r="7.50" fill="none" stroke="#ff2d95" stroke-width="1.2" opacity="0.65"/>
<polygon points="541.43,132.68 535.83,143.88 547.03,143.88" fill="#4c78a8" opacity="0.780"/>
<text x="551.43" y="142.28" text-anchor="start" font-size="10.5" font-family="Times New Roman, Times, serif" fill="#111">HRNet-W48 (Fine-Tuning+PTQ-INT8)</text>
<circle cx="541.43" cy="119.64" r="7.50" fill="none" stroke="#ff2d95" stroke-width="2.6" opacity="0.10"/>
<circle cx="541.43" cy="119.64" r="7.50" fill="none" stroke="#ff2d95" stroke-width="1.2" opacity="0.65"/>
<polygon points="541.43,114.04 535.83,125.24 547.03,125.24" fill="#4c78a8" opacity="0.780"/>
<text x="551.43" y="119.64" text-anchor="start" font-size="10.5" font-family="Times New Roman, Times, serif" fill="#111">HRNet-W48 (Fine-Tuning+QAT-INT8)</text>
<circle cx="198.57" cy="281.17" r="7.50" fill="none" stroke="#00e5ff" stroke-width="2.6" opacity="0.10"/>
<circle cx="198.57" cy="281.17" r="7.50" fill="none" stroke="#00e5ff" stroke-width="1.2" opacity="0.65"/>
<polygon points="198.57,275.57 193.25,279.77 195.21,286.49 201.93,286.49 203.89,279.77" fill="#f58518" opacity="0.780"/>
<text x="208.57" y="293.17" text-anchor="start" font-size="10.5" font-family="Times New Roman, Times, serif" fill="#111">HEViTPose-B</text>
<circle cx="131.43" cy="234.58" r="7.50" fill="none" stroke="#00e5ff" stroke-width="2.6" opacity="0.10"/>
<circle cx="131.43" cy="234.58" r="7.50" fill="none" stroke="#00e5ff" stroke-width="1.2" opacity="0.65"/>
<polygon points="131.43,228.98 132.72,233.29 137.03,233.29 133.39,235.42 134.51,240.18 131.43,237.10 128.35,240.18 129.47,235.42 125.83,233.29 130.14,233.29" fill="#ff9da6" opacity="0.780"/>
<text x="138.43" y="227.58" text-anchor="start" font-size="10.5" font-family="Times New Roman, Times, serif" fill="#111">DRP-Net-M</text>
<circle cx="172.86" cy="209.73" r="7.30" fill="none" stroke="#00e5ff" stroke-width="2.6" opacity="0.10"/>
<circle cx="172.86" cy="209.73" r="7.30" fill="none" stroke="#00e5ff" stroke-width="1.2" opacity="0.65"/>
<polygon points="167.46,209.73 170.16,204.33 175.56,204.33 178.26,209.73 175.56,215.13 170.16,215.13" fill="#72b7b2" opacity="0.780"/>
<text x="179.86" y="202.73" text-anchor="start" font-size="10.5" font-family="Times New Roman, Times, serif" fill="#111">GTPT-B</text>
<circle cx="115.71" cy="250.11" r="7.30" fill="none" stroke="#00e5ff" stroke-width="2.6" opacity="0.10"/>
<circle cx="115.71" cy="250.11" r="7.30" fill="none" stroke="#00e5ff" stroke-width="1.2" opacity="0.65"/>
<polygon points="110.31,250.11 113.01,244.71 118.41,244.71 121.11,250.11 118.41,255.51 113.01,255.51" fill="#72b7b2" opacity="0.780"/>
<text x="125.71" y="250.11" text-anchor="start" font-size="10.5" font-family="Times New Roman, Times, serif" fill="#111">GTPT-S</text>
<circle cx="90.00" cy="327.77" r="7.30" fill="none" stroke="#00e5ff" stroke-width="2.6" opacity="0.10"/>
<circle cx="90.00" cy="327.77" r="7.30" fill="none" stroke="#00e5ff" stroke-width="1.2" opacity="0.65"/>
<polygon points="84.60,327.77 87.30,322.37 92.70,322.37 95.40,327.77 92.70,333.17 87.30,333.17" fill="#72b7b2" opacity="0.780"/>
<text x="97.00" y="320.77" text-anchor="start" font-size="10.5" font-family="Times New Roman, Times, serif" fill="#111">GTPT-T</text>
<rect x="100" y="56" width="260" height="18" fill="white" opacity="0.82"/>
<polygon points="108.00,58.20 102.20,69.80 113.80,69.80" fill="#4c78a8" opacity="0.900"/>
<text x="120" y="68" font-size="12" font-family="Times New Roman, Times, serif">HRNet</text>
<rect x="100" y="74" width="260" height="18" fill="white" opacity="0.82"/>
<rect x="102.20" y="76.20" width="11.60" height="11.60" fill="#e45756" opacity="0.900"/>
<text x="120" y="86" font-size="12" font-family="Times New Roman, Times, serif">Ours</text>
<rect x="100" y="92" width="260" height="18" fill="white" opacity="0.82"/>
<circle cx="108.00" cy="100.00" r="5.80" fill="#54a24b" opacity="0.900"/>
<text x="120" y="104" font-size="12" font-family="Times New Roman, Times, serif">Lightweight</text>
<rect x="100" y="110" width="260" height="18" fill="white" opacity="0.82"/>
<circle cx="108.00" cy="118.00" r="5.80" fill="#9d9d9d" opacity="0.900"/>
<text x="120" y="122" font-size="12" font-family="Times New Roman, Times, serif">General Backbone</text>
<rect x="100" y="128" width="260" height="18" fill="white" opacity="0.82"/>
<polygon points="108.00,130.20 102.49,134.55 104.52,141.51 111.48,141.51 113.51,134.55" fill="#f58518" opacity="0.900"/>
<text x="120" y="140" font-size="12" font-family="Times New Roman, Times, serif">Efficient ViT</text>
<rect x="100" y="146" width="260" height="18" fill="white" opacity="0.82"/>
<polygon points="102.20,154.00 105.10,148.20 110.90,148.20 113.80,154.00 110.90,159.80 105.10,159.80" fill="#72b7b2" opacity="0.900"/>
<text x="120" y="158" font-size="12" font-family="Times New Roman, Times, serif">Token Pruning</text>
<rect x="100" y="164" width="260" height="18" fill="white" opacity="0.82"/>
<polygon points="108.00,166.20 109.33,170.67 113.80,170.67 110.03,172.87 111.19,177.80 108.00,174.61 104.81,177.80 105.97,172.87 102.20,170.67 106.67,170.67" fill="#ff9da6" opacity="0.900"/>
<text x="120" y="176" font-size="12" font-family="Times New Roman, Times, serif">Dynamic Resolution</text>
<rect x="100" y="186" width="260" height="18" fill="white" opacity="0.82"/>
<circle cx="108" cy="194" r="5.4" fill="none" stroke="#00e5ff" stroke-width="1.6" opacity="0.78"/>
<text x="120" y="198" font-size="12" font-family="Times New Roman, Times, serif">Input 256×192</text>
<rect x="100" y="204" width="260" height="18" fill="white" opacity="0.82"/>
<circle cx="108" cy="212" r="5.4" fill="none" stroke="#ff2d95" stroke-width="1.6" opacity="0.78"/>
<text x="120" y="216" font-size="12" font-family="Times New Roman, Times, serif">Input 384×288</text>
</svg>